<?xml version="1.0" encoding="UTF-8"?>
<!DOCTYPE svg PUBLIC "-//W3C//DTD SVG 1.1//EN" "http://www.w3.org/Graphics/SVG/1.1/DTD/svg11.dtd">
<svg xmlns="http://www.w3.org/2000/svg" version="1.1" width="298px" height="339px" style="shape-rendering:geometricPrecision; text-rendering:geometricPrecision; image-rendering:optimizeQuality; fill-rule:evenodd; clip-rule:evenodd" xmlns:xlink="http://www.w3.org/1999/xlink">
<g><path style="opacity:1" fill="#4895c2" d="M 125.5,-0.5 C 131.167,-0.5 136.833,-0.5 142.5,-0.5C 191.439,4.06756 228.272,27.7342 253,70.5C 256.39,77.3359 259.39,84.3359 262,91.5C 262.995,92.0659 263.828,92.7326 264.5,93.5C 262.326,93.0798 260.326,93.0798 258.5,93.5C 256.855,97.3254 256.188,101.325 256.5,105.5C 255.686,103.369 255.186,101.036 255,98.5C 249.231,93.5579 243.064,89.2245 236.5,85.5C 237.687,82.9607 239.021,80.4607 240.5,78C 238.872,73.049 238.039,67.8824 238,62.5C 236.133,60.1918 235.133,57.5251 235,54.5C 232.47,51.9367 230.303,49.1033 228.5,46C 227.255,45.2086 225.922,44.7086 224.5,44.5C 222.372,43.3709 220.039,43.2042 217.5,44C 214.833,45.6667 212.167,47.3333 209.5,49C 210.737,49.2321 211.737,49.7321 212.5,50.5C 209.196,51.888 206.03,51.5546 203,49.5C 198.179,50.9929 196.179,54.3262 197,59.5C 193.441,62.3432 191.274,66.0099 190.5,70.5C 190.167,70.5 189.833,70.5 189.5,70.5C 139.549,66.3911 100.382,85.0578 72,126.5C 51.5298,162.948 49.0298,200.615 64.5,239.5C 62.1377,242.192 59.8044,244.859 57.5,247.5C 35.6514,230.805 19.1514,209.805 8,184.5C 4.51633,174.549 1.683,164.549 -0.5,154.5C -0.5,141.167 -0.5,127.833 -0.5,114.5C 11.3189,57.1758 45.3189,20.0091 101.5,3C 109.57,1.31507 117.57,0.148403 125.5,-0.5 Z"/></g>
<g><path style="opacity:1" fill="#072546" d="M 224.5,44.5 C 223.022,44.238 221.689,44.5713 220.5,45.5C 221.325,46.3857 222.325,46.719 223.5,46.5C 223.5,47.8333 223.5,49.1667 223.5,50.5C 219.833,50.5 216.167,50.5 212.5,50.5C 211.737,49.7321 210.737,49.2321 209.5,49C 212.167,47.3333 214.833,45.6667 217.5,44C 220.039,43.2042 222.372,43.3709 224.5,44.5 Z"/></g>
<g><path style="opacity:1" fill="#80d0fe" d="M 189.5,70.5 C 187.275,74.8982 184.441,78.8982 181,82.5C 179.09,85.5689 179.09,88.5689 181,91.5C 181.497,86.1718 183.831,81.8385 188,78.5C 188.226,82.8874 188.726,87.2207 189.5,91.5C 186.893,92.3184 184.226,92.8184 181.5,93C 180.944,93.3826 180.611,93.8826 180.5,94.5C 167.779,99.6896 155.112,105.19 142.5,111C 140,112.818 138.334,115.152 137.5,118C 138.97,120.815 140.47,123.649 142,126.5C 151.92,136.094 162.086,145.26 172.5,154C 174.639,155.404 176.972,156.237 179.5,156.5C 181.355,156.66 182.688,155.993 183.5,154.5C 184.822,154.67 185.989,154.337 187,153.5C 187.483,154.448 187.649,155.448 187.5,156.5C 186.559,158.05 185.893,159.716 185.5,161.5C 180.762,168.769 176.596,176.435 173,184.5C 172.269,188.983 172.769,193.317 174.5,197.5C 174.228,199.978 173.562,202.311 172.5,204.5C 169.531,207.642 166.698,210.975 164,214.5C 162.201,220.231 160.201,225.898 158,231.5C 156.272,234.33 154.105,236.663 151.5,238.5C 146.807,236.485 142.141,234.485 137.5,232.5C 137.082,231.778 136.416,231.278 135.5,231C 123.314,230.799 111.147,231.299 99,232.5C 96.8218,232.605 94.9885,231.939 93.5,230.5C 90.1877,226.521 86.521,222.854 82.5,219.5C 74.9081,223.919 69.7414,230.252 67,238.5C 66.3292,239.252 65.4959,239.586 64.5,239.5C 49.0298,200.615 51.5298,162.948 72,126.5C 100.382,85.0578 139.549,66.3911 189.5,70.5 Z"/></g>
<g><path style="opacity:1" fill="#082449" d="M 189.5,70.5 C 189.833,70.5 190.167,70.5 190.5,70.5C 190.5,72.5 190.5,74.5 190.5,76.5C 191.5,76.5 192.5,76.5 193.5,76.5C 192.459,79.5855 191.126,82.5855 189.5,85.5C 190.513,88.3621 191.513,91.1954 192.5,94C 188.514,94.4988 184.514,94.6655 180.5,94.5C 180.611,93.8826 180.944,93.3826 181.5,93C 184.226,92.8184 186.893,92.3184 189.5,91.5C 188.726,87.2207 188.226,82.8874 188,78.5C 183.831,81.8385 181.497,86.1718 181,91.5C 179.09,88.5689 179.09,85.5689 181,82.5C 184.441,78.8982 187.275,74.8982 189.5,70.5 Z"/></g>
<g><path style="opacity:1" fill="#80cefb" d="M 236.5,85.5 C 243.064,89.2245 249.231,93.5579 255,98.5C 255.186,101.036 255.686,103.369 256.5,105.5C 257.96,108.704 258.46,112.038 258,115.5C 255.624,122.587 251.957,128.92 247,134.5C 245.303,131.328 243.47,128.328 241.5,125.5C 238.871,122.369 236.038,119.369 233,116.5C 231.423,109.255 227.256,104.089 220.5,101C 219.941,100.275 219.608,99.4419 219.5,98.5C 220.773,95.4576 222.439,92.6243 224.5,90C 227.361,91.1744 230.361,91.841 233.5,92C 235.022,90.0838 236.022,87.9171 236.5,85.5 Z"/></g>
<g><path style="opacity:1" fill="#0d2951" d="M 264.5,93.5 C 268.302,94.7786 271.469,97.1119 274,100.5C 274.294,104.916 273.127,108.916 270.5,112.5C 267.223,121.33 263.557,129.997 259.5,138.5C 259.665,135.15 259.498,131.817 259,128.5C 257.333,131.167 255.667,131.167 254,128.5C 252.13,131.574 249.797,134.241 247,136.5C 244.568,134.482 242.735,131.982 241.5,129C 240.342,127.739 240.342,126.573 241.5,125.5C 243.47,128.328 245.303,131.328 247,134.5C 251.957,128.92 255.624,122.587 258,115.5C 258.46,112.038 257.96,108.704 256.5,105.5C 256.188,101.325 256.855,97.3254 258.5,93.5C 260.326,93.0798 262.326,93.0798 264.5,93.5 Z"/></g>
<g><path style="opacity:1" fill="#01265c" d="M 260.5,95.5 C 263.054,96.388 265.721,96.7214 268.5,96.5C 268.146,98.5412 268.146,100.374 268.5,102C 265.134,105.611 264.801,109.444 267.5,113.5C 266.5,116.5 265.5,119.5 264.5,122.5C 263.191,120.109 262.191,120.109 261.5,122.5C 262.167,123.833 262.833,125.167 263.5,126.5C 263.167,127.167 262.833,127.833 262.5,128.5C 261.416,127.335 260.583,126.002 260,124.5C 259.667,117.833 259.333,111.167 259,104.5C 257.006,101.132 257.506,98.1318 260.5,95.5 Z"/></g>
<g><path style="opacity:1" fill="#81d0fd" d="M 270.5,112.5 C 277.642,122.506 283.809,133.173 289,144.5C 293.119,155.644 295.953,166.978 297.5,178.5C 297.5,186.833 297.5,195.167 297.5,203.5C 292.961,235.25 278.961,261.916 255.5,283.5C 254.833,282.5 254.167,281.5 253.5,280.5C 250.886,272.493 248.386,264.493 246,256.5C 245.667,252.833 245.333,249.167 245,245.5C 242.459,241.072 239.959,236.738 237.5,232.5C 234.243,220.684 228.909,210.018 221.5,200.5C 219.707,195.581 217.374,190.914 214.5,186.5C 214.863,185.817 215.196,185.15 215.5,184.5C 216.24,180.586 218.073,177.253 221,174.5C 221.717,170.955 221.55,167.455 220.5,164C 223.969,157.236 225.802,150.069 226,142.5C 227.684,140.649 229.517,138.982 231.5,137.5C 235.985,141.485 240.318,145.651 244.5,150C 248.155,152.335 251.321,151.835 254,148.5C 256.619,145.594 258.453,142.261 259.5,138.5C 263.557,129.997 267.223,121.33 270.5,112.5 Z"/></g>
<g><path style="opacity:1" fill="#052750" d="M 172.5,204.5 C 173.562,202.311 174.228,199.978 174.5,197.5C 172.769,193.317 172.269,188.983 173,184.5C 176.596,176.435 180.762,168.769 185.5,161.5C 186.785,161.596 188.119,161.596 189.5,161.5C 188.058,164.05 186.892,166.716 186,169.5C 185.667,169.167 185.333,168.833 185,168.5C 183.46,172.213 181.293,175.547 178.5,178.5C 176.916,183.477 176.583,188.477 177.5,193.5C 177.833,193.833 178.167,194.167 178.5,194.5C 183.992,193.214 189.659,192.547 195.5,192.5C 201.334,192.353 207.001,192.853 212.5,194C 200.163,194.487 187.829,194.987 175.5,195.5C 175.5,198.5 175.5,201.5 175.5,204.5C 174.5,204.5 173.5,204.5 172.5,204.5 Z"/></g>
<g><path style="opacity:1" fill="#02275a" d="M 224.5,44.5 C 225.922,44.7086 227.255,45.2086 228.5,46C 230.303,49.1033 232.47,51.9367 235,54.5C 235.133,57.5251 236.133,60.1918 238,62.5C 238.039,67.8824 238.872,73.049 240.5,78C 239.021,80.4607 237.687,82.9607 236.5,85.5C 236.022,87.9171 235.022,90.0838 233.5,92C 230.361,91.841 227.361,91.1744 224.5,90C 222.439,92.6243 220.773,95.4576 219.5,98.5C 219.608,99.4419 219.941,100.275 220.5,101C 227.256,104.089 231.423,109.255 233,116.5C 236.038,119.369 238.871,122.369 241.5,125.5C 240.342,126.573 240.342,127.739 241.5,129C 242.735,131.982 244.568,134.482 247,136.5C 249.797,134.241 252.13,131.574 254,128.5C 255.667,131.167 257.333,131.167 259,128.5C 259.498,131.817 259.665,135.15 259.5,138.5C 258.453,142.261 256.619,145.594 254,148.5C 251.321,151.835 248.155,152.335 244.5,150C 240.318,145.651 235.985,141.485 231.5,137.5C 229.517,138.982 227.684,140.649 226,142.5C 225.802,150.069 223.969,157.236 220.5,164C 221.55,167.455 221.717,170.955 221,174.5C 218.073,177.253 216.24,180.586 215.5,184.5C 214.307,184.97 213.64,185.97 213.5,187.5C 214.503,190.172 215.503,192.838 216.5,195.5C 215.5,197.167 214.5,198.833 213.5,200.5C 213.833,201.167 214.167,201.833 214.5,202.5C 215.833,201.167 217.167,199.833 218.5,198.5C 219.265,199.612 220.265,200.279 221.5,200.5C 226.838,211.271 232.171,221.938 237.5,232.5C 239.959,236.738 242.459,241.072 245,245.5C 245.333,249.167 245.667,252.833 246,256.5C 248.386,264.493 250.886,272.493 253.5,280.5C 253.518,284.607 254.185,288.607 255.5,292.5C 256.409,294.375 257.743,295.708 259.5,296.5C 260.441,298.05 261.107,299.716 261.5,301.5C 261.5,303.167 261.5,304.833 261.5,306.5C 264.01,306.998 266.51,307.664 269,308.5C 272.076,307.306 275.243,306.639 278.5,306.5C 279.007,307.859 280.007,308.859 281.5,309.5C 285.107,310.489 288.774,310.823 292.5,310.5C 292.5,309.5 292.5,308.5 292.5,307.5C 293.5,307.5 294.5,307.5 295.5,307.5C 295.448,311.198 295.114,314.865 294.5,318.5C 294.262,320.404 293.262,321.738 291.5,322.5C 290.448,322.351 289.448,322.517 288.5,323C 288.833,323.333 289.167,323.667 289.5,324C 285.795,325.861 282.462,328.027 279.5,330.5C 276.401,330.092 274.067,331.259 272.5,334C 269.185,335.83 265.851,337.33 262.5,338.5C 261.167,338.5 259.833,338.5 258.5,338.5C 257.833,337.5 257.167,336.5 256.5,335.5C 256.946,332.99 256.28,330.99 254.5,329.5C 252.907,326.644 251.573,323.644 250.5,320.5C 252.674,318.473 253.008,316.14 251.5,313.5C 250.965,308.379 248.965,304.046 245.5,300.5C 245.667,299.833 245.833,299.167 246,298.5C 246.998,301.028 247.831,301.028 248.5,298.5C 247.696,295.56 246.363,292.893 244.5,290.5C 243.784,291.311 242.95,291.978 242,292.5C 240.5,291.5 239,290.5 237.5,289.5C 239.585,287.164 239.751,284.831 238,282.5C 237.51,283.793 237.343,285.127 237.5,286.5C 236.5,286.5 235.5,286.5 234.5,286.5C 234.83,282.512 233.163,279.845 229.5,278.5C 228.613,270.865 227.78,263.199 227,255.5C 220.684,247.919 213.684,240.919 206,234.5C 203.385,230.217 200.385,226.217 197,222.5C 187.753,235.582 177.253,247.582 165.5,258.5C 161.167,258.5 156.833,258.5 152.5,258.5C 152.5,257.167 152.5,255.833 152.5,254.5C 148.011,253.108 143.344,252.108 138.5,251.5C 139.522,250.646 140.355,249.646 141,248.5C 141.308,249.308 141.808,249.975 142.5,250.5C 144.001,249.248 145.668,248.248 147.5,247.5C 145.833,246.833 144.167,246.167 142.5,245.5C 141.167,244.167 141.167,242.833 142.5,241.5C 145.939,241.094 148.939,240.094 151.5,238.5C 154.105,236.663 156.272,234.33 158,231.5C 160.201,225.898 162.201,220.231 164,214.5C 166.698,210.975 169.531,207.642 172.5,204.5C 173.5,204.5 174.5,204.5 175.5,204.5C 175.5,201.5 175.5,198.5 175.5,195.5C 187.829,194.987 200.163,194.487 212.5,194C 207.001,192.853 201.334,192.353 195.5,192.5C 189.659,192.547 183.992,193.214 178.5,194.5C 178.167,194.167 177.833,193.833 177.5,193.5C 176.583,188.477 176.916,183.477 178.5,178.5C 181.293,175.547 183.46,172.213 185,168.5C 185.333,168.833 185.667,169.167 186,169.5C 186.892,166.716 188.058,164.05 189.5,161.5C 188.119,161.596 186.785,161.596 185.5,161.5C 185.893,159.716 186.559,158.05 187.5,156.5C 189.282,154.977 190.615,152.977 191.5,150.5C 189.966,146.662 189.132,142.662 189,138.5C 188.362,135.399 187.195,132.732 185.5,130.5C 184.857,125.129 183.524,119.962 181.5,115C 177.135,115.506 172.801,116.506 168.5,118C 165.183,118.498 161.85,118.665 158.5,118.5C 159.428,122.362 160.928,126.029 163,129.5C 166.5,133 170,136.5 173.5,140C 176.438,140.712 179.104,140.212 181.5,138.5C 183.066,142.186 184.399,146.186 185.5,150.5C 184.775,151.867 184.108,153.2 183.5,154.5C 182.688,155.993 181.355,156.66 179.5,156.5C 176.972,156.237 174.639,155.404 172.5,154C 162.086,145.26 151.92,136.094 142,126.5C 140.47,123.649 138.97,120.815 137.5,118C 138.334,115.152 140,112.818 142.5,111C 155.112,105.19 167.779,99.6896 180.5,94.5C 184.514,94.6655 188.514,94.4988 192.5,94C 191.513,91.1954 190.513,88.3621 189.5,85.5C 191.126,82.5855 192.459,79.5855 193.5,76.5C 192.5,76.5 191.5,76.5 190.5,76.5C 190.5,74.5 190.5,72.5 190.5,70.5C 191.274,66.0099 193.441,62.3432 197,59.5C 196.179,54.3262 198.179,50.9929 203,49.5C 206.03,51.5546 209.196,51.888 212.5,50.5C 216.167,50.5 219.833,50.5 223.5,50.5C 223.5,49.1667 223.5,47.8333 223.5,46.5C 222.325,46.719 221.325,46.3857 220.5,45.5C 221.689,44.5713 223.022,44.238 224.5,44.5 Z"/></g>
<g><path style="opacity:1" fill="#0e2c50" d="M 185.5,130.5 C 187.195,132.732 188.362,135.399 189,138.5C 189.132,142.662 189.966,146.662 191.5,150.5C 190.615,152.977 189.282,154.977 187.5,156.5C 187.649,155.448 187.483,154.448 187,153.5C 185.989,154.337 184.822,154.67 183.5,154.5C 184.108,153.2 184.775,151.867 185.5,150.5C 184.399,146.186 183.066,142.186 181.5,138.5C 182.952,137.698 184.618,137.198 186.5,137C 185.577,134.959 185.244,132.792 185.5,130.5 Z"/></g>
<g><path style="opacity:1" fill="#81cdf9" d="M 185.5,130.5 C 185.244,132.792 185.577,134.959 186.5,137C 184.618,137.198 182.952,137.698 181.5,138.5C 179.104,140.212 176.438,140.712 173.5,140C 170,136.5 166.5,133 163,129.5C 160.928,126.029 159.428,122.362 158.5,118.5C 161.85,118.665 165.183,118.498 168.5,118C 172.801,116.506 177.135,115.506 181.5,115C 183.524,119.962 184.857,125.129 185.5,130.5 Z"/></g>
<g><path style="opacity:1" fill="#05264b" d="M 215.5,184.5 C 215.196,185.15 214.863,185.817 214.5,186.5C 217.374,190.914 219.707,195.581 221.5,200.5C 220.265,200.279 219.265,199.612 218.5,198.5C 217.167,199.833 215.833,201.167 214.5,202.5C 214.167,201.833 213.833,201.167 213.5,200.5C 214.5,198.833 215.5,197.167 216.5,195.5C 215.503,192.838 214.503,190.172 213.5,187.5C 213.64,185.97 214.307,184.97 215.5,184.5 Z"/></g>
<g><path style="opacity:1" fill="#08284c" d="M 221.5,200.5 C 228.909,210.018 234.243,220.684 237.5,232.5C 232.171,221.938 226.838,211.271 221.5,200.5 Z"/></g>
<g><path style="opacity:1" fill="#0d2a53" d="M 93.5,230.5 C 88.7172,228.19 84.3839,226.19 80.5,224.5C 78.9436,225.547 77.2769,226.214 75.5,226.5C 75.3563,229.884 74.023,232.717 71.5,235C 71.8333,235.333 72.1667,235.667 72.5,236C 68.5583,240.3 64.2249,244.133 59.5,247.5C 56.9975,252.174 55.6641,257.174 55.5,262.5C 58.1667,262.5 60.8333,262.5 63.5,262.5C 61.2252,265.389 58.3918,266.056 55,264.5C 53.8044,258.461 54.6377,252.795 57.5,247.5C 59.8044,244.859 62.1377,242.192 64.5,239.5C 65.4959,239.586 66.3292,239.252 67,238.5C 69.7414,230.252 74.9081,223.919 82.5,219.5C 86.521,222.854 90.1877,226.521 93.5,230.5 Z"/></g>
<g><path style="opacity:1" fill="#02275a" d="M 93.5,230.5 C 94.9885,231.939 96.8218,232.605 99,232.5C 111.147,231.299 123.314,230.799 135.5,231C 136.416,231.278 137.082,231.778 137.5,232.5C 136.993,233.859 135.993,234.859 134.5,235.5C 135.5,236.167 136.5,236.833 137.5,237.5C 135.995,238.842 135.328,240.508 135.5,242.5C 130.875,244.139 126.209,245.806 121.5,247.5C 123.667,247.833 125.833,248.167 128,248.5C 130.625,248.419 132.959,247.752 135,246.5C 135.49,247.793 135.657,249.127 135.5,250.5C 133.226,250.715 131.059,251.382 129,252.5C 122.443,249.702 115.609,248.369 108.5,248.5C 101.633,248.261 94.7995,248.595 88,249.5C 85.5389,250.628 83.7056,252.461 82.5,255C 79.4133,255.259 76.4133,255.759 73.5,256.5C 72.8333,256.5 72.1667,256.5 71.5,256.5C 67.173,255.803 64.5063,257.47 63.5,261.5C 63.5,261.833 63.5,262.167 63.5,262.5C 60.8333,262.5 58.1667,262.5 55.5,262.5C 55.6641,257.174 56.9975,252.174 59.5,247.5C 64.2249,244.133 68.5583,240.3 72.5,236C 72.1667,235.667 71.8333,235.333 71.5,235C 74.023,232.717 75.3563,229.884 75.5,226.5C 77.2769,226.214 78.9436,225.547 80.5,224.5C 84.3839,226.19 88.7172,228.19 93.5,230.5 Z"/></g>
<g><path style="opacity:1" fill="#81d0fd" d="M 229.5,278.5 C 232.004,284.667 235.337,290.334 239.5,295.5C 202.63,315.639 164.63,317.806 125.5,302C 109.211,294.581 95.0441,284.081 83,270.5C 79.6121,265.952 76.4454,261.286 73.5,256.5C 76.4133,255.759 79.4133,255.259 82.5,255C 83.7056,252.461 85.5389,250.628 88,249.5C 94.7995,248.595 101.633,248.261 108.5,248.5C 122.53,252.726 136.863,256.226 151.5,259C 154.055,260.444 156.721,261.611 159.5,262.5C 161.871,261.653 163.871,260.32 165.5,258.5C 177.253,247.582 187.753,235.582 197,222.5C 200.385,226.217 203.385,230.217 206,234.5C 213.684,240.919 220.684,247.919 227,255.5C 227.78,263.199 228.613,270.865 229.5,278.5 Z"/></g>
<g><path style="opacity:1" fill="#042857" d="M 137.5,232.5 C 142.141,234.485 146.807,236.485 151.5,238.5C 148.939,240.094 145.939,241.094 142.5,241.5C 141.167,242.833 141.167,244.167 142.5,245.5C 144.167,246.167 145.833,246.833 147.5,247.5C 145.668,248.248 144.001,249.248 142.5,250.5C 141.808,249.975 141.308,249.308 141,248.5C 140.355,249.646 139.522,250.646 138.5,251.5C 143.344,252.108 148.011,253.108 152.5,254.5C 152.5,255.833 152.5,257.167 152.5,258.5C 156.833,258.5 161.167,258.5 165.5,258.5C 163.871,260.32 161.871,261.653 159.5,262.5C 156.721,261.611 154.055,260.444 151.5,259C 136.863,256.226 122.53,252.726 108.5,248.5C 115.609,248.369 122.443,249.702 129,252.5C 131.059,251.382 133.226,250.715 135.5,250.5C 135.657,249.127 135.49,247.793 135,246.5C 132.959,247.752 130.625,248.419 128,248.5C 125.833,248.167 123.667,247.833 121.5,247.5C 126.209,245.806 130.875,244.139 135.5,242.5C 135.328,240.508 135.995,238.842 137.5,237.5C 136.5,236.833 135.5,236.167 134.5,235.5C 135.993,234.859 136.993,233.859 137.5,232.5 Z"/></g>
<g><path style="opacity:1" fill="#596271" d="M 71.5,256.5 C 68.3502,257.302 65.6835,258.968 63.5,261.5C 64.5063,257.47 67.173,255.803 71.5,256.5 Z"/></g>
<g><path style="opacity:1" fill="#24364b" d="M 253.5,280.5 C 254.167,281.5 254.833,282.5 255.5,283.5C 256.063,288.088 257.396,292.421 259.5,296.5C 257.743,295.708 256.409,294.375 255.5,292.5C 254.185,288.607 253.518,284.607 253.5,280.5 Z"/></g>
<g><path style="opacity:1" fill="#132c55" d="M 229.5,278.5 C 233.163,279.845 234.83,282.512 234.5,286.5C 235.5,286.5 236.5,286.5 237.5,286.5C 237.343,285.127 237.51,283.793 238,282.5C 239.751,284.831 239.585,287.164 237.5,289.5C 239,290.5 240.5,291.5 242,292.5C 242.95,291.978 243.784,291.311 244.5,290.5C 246.363,292.893 247.696,295.56 248.5,298.5C 247.831,301.028 246.998,301.028 246,298.5C 245.833,299.167 245.667,299.833 245.5,300.5C 248.965,304.046 250.965,308.379 251.5,313.5C 247.926,307.251 243.926,301.251 239.5,295.5C 235.337,290.334 232.004,284.667 229.5,278.5 Z"/></g>
<g><path style="opacity:1" fill="#2c3752" d="M 261.5,301.5 C 263.49,304.617 265.99,306.617 269,307.5C 272.008,304.106 275.174,303.773 278.5,306.5C 275.243,306.639 272.076,307.306 269,308.5C 266.51,307.664 264.01,306.998 261.5,306.5C 261.5,304.833 261.5,303.167 261.5,301.5 Z"/></g>
<g><path style="opacity:1" fill="#2b3857" d="M 297.5,307.5 C 297.5,309.833 297.5,312.167 297.5,314.5C 296.857,316.076 295.857,317.41 294.5,318.5C 295.114,314.865 295.448,311.198 295.5,307.5C 294.5,307.5 293.5,307.5 292.5,307.5C 292.5,308.5 292.5,309.5 292.5,310.5C 288.774,310.823 285.107,310.489 281.5,309.5C 280.007,308.859 279.007,307.859 278.5,306.5C 280.734,307.447 283.068,308.114 285.5,308.5C 288.137,307.558 290.804,306.558 293.5,305.5C 295.073,305.752 296.406,306.418 297.5,307.5 Z"/></g>
<g><path style="opacity:1" fill="#3f4a60" d="M 291.5,322.5 C 288.906,327.066 284.906,329.733 279.5,330.5C 282.462,328.027 285.795,325.861 289.5,324C 289.167,323.667 288.833,323.333 288.5,323C 289.448,322.517 290.448,322.351 291.5,322.5 Z"/></g>
<g><path style="opacity:1" fill="#636d81" d="M 254.5,329.5 C 256.28,330.99 256.946,332.99 256.5,335.5C 255.542,333.698 254.875,331.698 254.5,329.5 Z"/></g>
</svg>
